{"title":"Sta dixtya tou pepromenou S02E07 Greek Subs","uid":12962952,"size":922561292,"categoryP":"video","categoryS":"tv_shows","magnet":"?xt=urn:btih:74c71d5858702cdaae8c7c40f8a5cb6e49b993c1&amp;dn=Sta+dixtya+tou+pepromenou+S02E07+Greek+Subs&amp;tr=udp%3A%2F%2Ftracker.leechers-paradise.org%3A6969&amp;tr=udp%3A%2F%2Fzer0day.ch%3A1337&amp;tr=udp%3A%2F%2Fopen.demonii.com%3A1337&amp;tr=udp%3A%2F%2Ftracker.coppersurfer.tk%3A6969&amp;tr=udp%3A%2F%2Fexodus.desync.com%3A6969","seeders":0,"leechers":0,"uploader":"Aris2015","files":1,"time":1449866555,"description":"General\r\nComplete name               : Sta.dixtya.tou.pepromenou.S02E07 Gr Subs.avi\r\nFormat                      : AVI\r\nFormat/Info                 : Audio Video Interleave\r\nFile size                   : 880 MiB\r\nDuration                    : 1h 34mn\r\nOverall bit rate            : 1 303 Kbps\r\nWriting application         : Lavf54.63.104\r\n\r\nVideo\r\nID                          : 0\r\nFormat                      : AVC\r\nFormat/Info                 : Advanced Video Codec\r\nFormat profile              :   \r\nFormat settings, CABAC      : Yes\r\nFormat settings, ReFrames   : 1 frame\r\nCodec ID                    : H264\r\nDuration                    : 1h 34mn\r\nBit rate                    : 1 037 Kbps\r\nWidth                       : 1 024 pixels\r\nHeight                      : 576 pixels\r\nDisplay aspect ratio        : 16:9\r\nFrame rate mode             : Variable\r\nFrame rate                  : 25.000 fps\r\nColor space                 : YUV\r\nChroma subsampling          : 4:2:0\r\nBit depth                   : 8 bits\r\nScan type                   : Progressive\r\nBits/(Pixel*Frame)          : 0.070\r\nStream size                 : 698 MiB (79%)\r\nWriting library             : x264 core 129\r\n\r\n\r\nAudio\r\nID                          : 1\r\nFormat                      : MPEG Audio\r\nFormat version              : Version 1\r\nFormat profile              : Layer 3\r\nMode                        : Joint stereo\r\nMode extension              : MS Stereo\r\nCodec ID                    : 55\r\nCodec ID/Hint               : MP3\r\nDuration                    : 1h 34mn\r\nBit rate mode               : Constant\r\nBit rate                    : 256 Kbps\r\nChannel(s)                  : 2 channels\r\nSampling rate               : 48.0 KHz\r\nCompression mode            : Lossy\r\nStream size                 : 173 MiB (20%)\r\nAlignment                   : Aligned on interleaves\r\nInterleave, duration        : 24 ms (0.60 video frame)","torrent":{"xt":"urn:btih:74c71d5858702cdaae8c7c40f8a5cb6e49b993c1","amp;dn":"Sta+dixtya+tou+pepromenou+S02E07+Greek+Subs","amp;tr":["udp%3A%2F%2Ftracker.leechers-paradise.org%3A6969","udp%3A%2F%2Fzer0day.ch%3A1337","udp%3A%2F%2Fopen.demonii.com%3A1337","udp%3A%2F%2Ftracker.coppersurfer.tk%3A6969","udp%3A%2F%2Fexodus.desync.com%3A6969"],"infoHash":"74c71d5858702cdaae8c7c40f8a5cb6e49b993c1","infoHashBuffer":{"type":"Buffer","data":[116,199,29,88,88,112,44,218,174,140,124,64,248,165,203,110,73,185,147,193]},"announce":[],"urlList":[]}}